<svg width="99" height="26" viewBox="0 0 99 26" fill="none" xmlns="http://www.w3.org/2000/svg">
<path opacity="0.5" d="M8.81785 20.524C13.5874 20.524 17.4539 16.6575 17.4539 11.888C17.4539 7.11848 13.5874 3.25201 8.81785 3.25201C4.04832 3.25201 0.181854 7.11848 0.181854 11.888C0.181854 16.6575 4.04832 20.524 8.81785 20.524Z" fill="#97AABD"/>
<path d="M16.3939 21.111V17.672C16.3968 17.2496 16.5666 16.8454 16.8664 16.5477C17.1661 16.2501 17.5714 16.083 17.9939 16.083H21.2259C21.6497 16.0826 22.0566 16.2498 22.3579 16.548C22.5064 16.6951 22.6243 16.8702 22.7048 17.0631C22.7853 17.256 22.8268 17.463 22.8269 17.672V21.11C22.8255 21.2909 22.8602 21.4703 22.9289 21.6377C22.9976 21.8051 23.0988 21.9571 23.2269 22.085C23.4874 22.3426 23.8395 22.4864 24.2059 22.485H26.4109C27.4394 22.4883 28.4274 22.0842 29.1589 21.361C29.5194 21.0047 29.8058 20.5803 30.0013 20.1126C30.1968 19.6448 30.2976 19.143 30.2979 18.636V8.83601C30.2975 8.42739 30.207 8.02387 30.033 7.65417C29.8589 7.28447 29.6055 6.95767 29.2909 6.69701L21.7909 0.760006C21.1571 0.254594 20.3669 -0.0139459 19.5565 0.000657214C18.746 0.0152603 17.966 0.312091 17.3509 0.840006L10.0199 6.70701C9.69054 6.95984 9.42199 7.28317 9.2339 7.6533C9.04581 8.02342 8.94295 8.43095 8.93285 8.84601V18.632C8.93469 19.1405 9.03666 19.6436 9.23294 20.1127C9.42923 20.5818 9.71598 21.0076 10.0768 21.3658C10.4377 21.7241 10.8656 22.0077 11.336 22.2006C11.8065 22.3935 12.3104 22.4918 12.8189 22.49H14.9739C15.3391 22.4911 15.69 22.3478 15.9502 22.0914C16.2103 21.835 16.3586 21.4862 16.3629 21.121L16.3939 21.111Z" fill="#97AABD"/>
<path d="M60.3409 7.91V19.142H57.6049V14.518H53.3489V19.142H50.6129V7.91H53.3489V12.31H57.6049V7.91H60.3409ZM66.38 19.27C65.5053 19.27 64.716 19.0833 64.012 18.71C63.3186 18.3367 62.7693 17.8033 62.364 17.11C61.9693 16.4167 61.772 15.606 61.772 14.678C61.772 13.7607 61.9746 12.9553 62.38 12.262C62.7853 11.558 63.34 11.0193 64.044 10.646C64.748 10.2727 65.5373 10.086 66.412 10.086C67.2866 10.086 68.076 10.2727 68.78 10.646C69.484 11.0193 70.0386 11.558 70.444 12.262C70.8493 12.9553 71.052 13.7607 71.052 14.678C71.052 15.5953 70.844 16.406 70.428 17.11C70.0226 17.8033 69.4626 18.3367 68.748 18.71C68.044 19.0833 67.2546 19.27 66.38 19.27ZM66.38 16.902C66.9026 16.902 67.3453 16.71 67.708 16.326C68.0813 15.942 68.268 15.3927 68.268 14.678C68.268 13.9633 68.0866 13.414 67.724 13.03C67.372 12.646 66.9346 12.454 66.412 12.454C65.8786 12.454 65.436 12.646 65.084 13.03C64.732 13.4033 64.556 13.9527 64.556 14.678C64.556 15.3927 64.7266 15.942 65.068 16.326C65.42 16.71 65.8573 16.902 66.38 16.902ZM83.8955 10.118C85.0048 10.118 85.8848 10.454 86.5355 11.126C87.1968 11.798 87.5275 12.7313 87.5275 13.926V19.142H84.8075V14.294C84.8075 13.718 84.6528 13.2753 84.3435 12.966C84.0448 12.646 83.6288 12.486 83.0955 12.486C82.5621 12.486 82.1408 12.646 81.8315 12.966C81.5328 13.2753 81.3835 13.718 81.3835 14.294V19.142H78.6635V14.294C78.6635 13.718 78.5088 13.2753 78.1995 12.966C77.9008 12.646 77.4848 12.486 76.9515 12.486C76.4181 12.486 75.9968 12.646 75.6875 12.966C75.3888 13.2753 75.2395 13.718 75.2395 14.294V19.142H72.5035V10.214H75.2395V11.334C75.5168 10.9607 75.8795 10.6673 76.3275 10.454C76.7755 10.23 77.2821 10.118 77.8475 10.118C78.5195 10.118 79.1168 10.262 79.6395 10.55C80.1728 10.838 80.5888 11.2487 80.8875 11.782C81.1968 11.2913 81.6181 10.8913 82.1515 10.582C82.6848 10.2727 83.2661 10.118 83.8955 10.118ZM97.857 14.534C97.857 14.79 97.841 15.0567 97.809 15.334H91.617C91.6596 15.8887 91.8356 16.3153 92.145 16.614C92.465 16.902 92.8543 17.046 93.313 17.046C93.9956 17.046 94.4703 16.758 94.737 16.182H97.649C97.4996 16.7687 97.2276 17.2967 96.833 17.766C96.449 18.2353 95.9636 18.6033 95.377 18.87C94.7903 19.1367 94.1343 19.27 93.409 19.27C92.5343 19.27 91.7556 19.0833 91.073 18.71C90.3903 18.3367 89.857 17.8033 89.473 17.11C89.089 16.4167 88.897 15.606 88.897 14.678C88.897 13.75 89.0836 12.9393 89.457 12.246C89.841 11.5527 90.3743 11.0193 91.057 10.646C91.7396 10.2727 92.5236 10.086 93.409 10.086C94.273 10.086 95.041 10.2673 95.713 10.63C96.385 10.9927 96.9076 11.51 97.281 12.182C97.665 12.854 97.857 13.638 97.857 14.534ZM95.057 13.814C95.057 13.3447 94.897 12.9713 94.577 12.694C94.257 12.4167 93.857 12.278 93.377 12.278C92.9183 12.278 92.529 12.4113 92.209 12.678C91.8996 12.9447 91.7076 13.3233 91.633 13.814H95.057Z" fill="#97AABD"/>
</svg>
